<svg width="9" height="6" viewBox="0 0 9 6" fill="none" xmlns="http://www.w3.org/2000/svg">
<g clip-path="url(#clip0_51_7711)">
<path d="M8.73617 2.48588L6.5554 3.83562C6.46668 3.89069 6.34728 3.85557 6.30582 3.76139L4.68227 0.100084C4.62423 -0.0316172 4.43103 -0.0340117 4.36884 0.0968915L2.63584 3.77575C2.59438 3.86435 2.48244 3.89867 2.39454 3.85078L0.256897 2.66547C0.118423 2.58884 -0.0432686 2.71975 0.0106286 2.86422L1.14413 5.89176C1.16817 5.95721 1.23285 6.00031 1.30499 6.00031H7.7486C7.82323 6.00031 7.88874 5.95402 7.91113 5.88617L8.99073 2.67505C9.04048 2.52818 8.8705 2.40207 8.73534 2.48588H8.73617ZM4.49985 5.37852C4.49985 4.20598 4.43849 4.11818 3.61262 4.11818C4.43849 4.11818 4.49985 4.03038 4.49985 2.85783C4.49985 4.03038 4.56121 4.11818 5.38708 4.11818C4.56121 4.11818 4.49985 4.20598 4.49985 5.37852Z" fill="#F2DB94"/>
</g>
<defs>
<clipPath id="clip0_51_7711">
<rect width="9" height="6" fill="white"/>
</clipPath>
</defs>
</svg>
