<svg xmlns="http://www.w3.org/2000/svg" width="26" height="26" viewBox="0 0 26 26" fill="none">
  <path fill-rule="evenodd" clip-rule="evenodd" d="M13 26C20.1795 26 26 20.1795 26 13C26 5.8205 20.1795 0 13 0C5.8205 0 0 5.8205 0 13C0 20.1795 5.8205 26 13 26Z" fill="#3F3F3F"/>
  <path fill-rule="evenodd" clip-rule="evenodd" d="M17.7105 10.8284C17.7105 10.8284 13.2769 6.38434 13.2398 6.34158C13.0595 6.13276 12.796 6 12.5 6C12.1916 6 11.9188 6.14469 11.7384 6.36893C11.6999 6.41716 7.28949 10.8284 7.28949 10.8284C6.9035 11.2167 6.9035 11.8467 7.28949 12.2345C7.67547 12.6229 8.30164 12.6229 8.68713 12.2345L11.5116 9.39347V19.0006C11.5116 19.5525 11.9544 20 12.5 20C13.0461 20 13.4884 19.5525 13.4884 19.0006V9.39347L16.3129 12.2345C16.6984 12.6229 17.3245 12.6229 17.7105 12.2345C18.0965 11.8467 18.0965 11.2167 17.7105 10.8284Z" fill="#F9F9F9"/>
</svg>