<svg width="12" height="12" viewBox="0 0 12 12" fill="none" xmlns="http://www.w3.org/2000/svg">
<path fill-rule="evenodd" clip-rule="evenodd" d="M6.30777 1.19238C6.30777 0.91624 6.08391 0.692383 5.80777 0.692383C5.53163 0.692383 5.30777 0.91624 5.30777 1.19238V4.60066L3.84426 3.13715C3.649 2.94189 3.33242 2.94189 3.13715 3.13715C2.94189 3.33242 2.94189 3.649 3.13715 3.84426L4.60066 5.30777H1.19238C0.91624 5.30777 0.692383 5.53163 0.692383 5.80777C0.692383 6.08391 0.91624 6.30777 1.19238 6.30777H4.65155L3.5968 7.36253C3.40153 7.55779 3.40153 7.87437 3.5968 8.06963C3.79206 8.26489 4.10864 8.26489 4.3039 8.06963L5.30777 7.06577L5.30777 10.8078C5.30777 11.0839 5.53162 11.3078 5.80777 11.3078C6.08391 11.3078 6.30777 11.0839 6.30777 10.8078L6.30777 7.01487L7.36255 8.06966C7.55781 8.26492 7.87439 8.26492 8.06965 8.06966C8.26492 7.87439 8.26492 7.55781 8.06965 7.36255L7.01487 6.30777H10.8078C11.0839 6.30777 11.3078 6.08391 11.3078 5.80777C11.3078 5.53163 11.0839 5.30777 10.8078 5.30777H7.06577L8.5293 3.84424C8.72456 3.64898 8.72456 3.33239 8.5293 3.13713C8.33403 2.94187 8.01745 2.94187 7.82219 3.13713L6.30777 4.65155V1.19238Z" fill="#F2DB95"/>
</svg>
