<svg width="354" height="354" viewBox="0 0 354 354" fill="none" xmlns="http://www.w3.org/2000/svg">
<rect x="61" y="61" width="232" height="232" rx="10" fill="#3F3F3F"/>
<g opacity="0.15" filter="url(#filter0_f_83_1557)">
<circle cx="177" cy="177" r="76.6038" fill="#F2DB95"/>
</g>
<g clip-path="url(#clip0_83_1557)">
<path d="M177.551 246.27H176.449C176.449 214.396 176.449 198.398 168.642 190.541C160.832 182.688 144.929 182.688 113.244 182.688V181.579C144.929 181.579 160.832 181.579 168.642 173.726C176.449 165.869 176.449 149.871 176.449 117.997H177.551C177.551 149.871 177.551 165.869 185.358 173.726C193.164 181.579 209.071 181.579 240.756 181.579V182.688C209.071 182.688 193.168 182.688 185.358 190.541C177.551 198.398 177.551 214.396 177.551 246.27ZM144.969 182.133C157.006 182.939 164.603 184.914 169.418 189.757C174.232 194.6 176.195 202.243 176.996 214.351C177.797 202.243 179.76 194.6 184.575 189.757C189.39 184.914 196.986 182.939 209.023 182.133C196.986 181.327 189.39 179.353 184.575 174.509C179.76 169.666 177.797 162.024 176.996 149.915C176.195 162.024 174.232 169.666 169.418 174.509C164.603 179.353 157.006 181.327 144.969 182.133Z" fill="#F2DB94"/>
<path d="M150.865 181.534L150.497 180.488C155.999 178.54 161.718 176.591 167.488 174.687L167.83 175.741C162.067 177.641 156.356 179.59 150.861 181.534H150.865Z" fill="#F2DB94"/>
<path d="M95.5984 211.893C91.2026 211.893 90.2323 210.928 89.9604 210.07C88.9974 207.038 98.0682 202.213 104.97 198.849C115.015 193.953 129.14 188.182 145.815 182.159L146.186 183.202C129.548 189.21 115.46 194.967 105.448 199.843C90.9637 206.905 90.8792 209.319 91.0115 209.733C91.5628 211.467 101.556 212.092 135.524 203.441L135.796 204.517C122.763 207.837 111.689 210.155 103.772 211.223C100.207 211.704 97.561 211.896 95.602 211.896L95.5984 211.893Z" fill="#F2DB94"/>
<path d="M143.286 202.553L143.003 201.481C154.624 198.364 166.97 194.711 179.698 190.626C202.79 183.213 224.199 175.312 239.981 168.368C247.64 165 253.55 162.046 257.545 159.584C263.018 156.215 263.099 154.862 262.992 154.529C262.882 154.186 261.731 152.548 249.772 154.226C241.513 155.384 229.998 157.842 216.473 161.34L216.198 160.264C229.763 156.759 241.319 154.289 249.617 153.128C261.706 151.435 263.639 152.925 264.043 154.193C265.381 158.408 246.596 166.668 240.422 169.385C224.607 176.343 203.157 184.259 180.032 191.683C167.29 195.773 154.926 199.429 143.286 202.553Z" fill="#F2DB94"/>
<path d="M182.329 171.104L182.006 170.043C192.455 166.801 202.588 163.869 212.122 161.336L212.405 162.408C202.886 164.941 192.767 167.866 182.333 171.104H182.329Z" fill="#F2DB94"/>
<path d="M139.368 207.608C136.88 207.608 134.851 205.57 134.851 203.067C134.851 200.564 136.876 198.523 139.368 198.523C141.86 198.523 143.881 200.561 143.881 203.067C143.881 205.574 141.856 207.608 139.368 207.608ZM139.368 199.633C137.486 199.633 135.954 201.174 135.954 203.067C135.954 204.96 137.486 206.498 139.368 206.498C141.25 206.498 142.779 204.957 142.779 203.067C142.779 201.178 141.246 199.633 139.368 199.633Z" fill="#F2DB94"/>
<path d="M214.338 163.839C212.89 163.839 211.71 162.652 211.71 161.196C211.71 159.739 212.89 158.552 214.338 158.552C215.786 158.552 216.966 159.739 216.966 161.196C216.966 162.652 215.786 163.839 214.338 163.839ZM214.338 159.661C213.496 159.661 212.813 160.349 212.813 161.196C212.813 162.042 213.496 162.73 214.338 162.73C215.179 162.73 215.863 162.042 215.863 161.196C215.863 160.349 215.179 159.661 214.338 159.661Z" fill="#F2DB94"/>
<path d="M218.421 152.925H217.319V154.444H218.421V152.925Z" fill="#F2DB94"/>
<path d="M218.421 155.265H217.319V156.785H218.421V155.265Z" fill="#F2DB94"/>
<path d="M219.788 154.3H218.278V155.409H219.788V154.3Z" fill="#F2DB94"/>
<path d="M217.462 154.3H215.951V155.409H217.462V154.3Z" fill="#F2DB94"/>
<path d="M134.201 209.571H133.098V211.405H134.201V209.571Z" fill="#F2DB94"/>
<path d="M134.201 212.396H133.098V214.229H134.201V212.396Z" fill="#F2DB94"/>
<path d="M135.965 211.345H134.142V212.455H135.965V211.345Z" fill="#F2DB94"/>
<path d="M133.153 211.345H131.33V212.455H133.153V211.345Z" fill="#F2DB94"/>
<path d="M177.555 103.023H176.453V106.579H177.555V103.023Z" fill="#F2DB94"/>
<path d="M177.555 108.502H176.453V112.059H177.555V108.502Z" fill="#F2DB94"/>
<path d="M181.495 106.986H177.959V108.095H181.495V106.986Z" fill="#F2DB94"/>
<path d="M176.048 106.986H172.513V108.095H176.048V106.986Z" fill="#F2DB94"/>
</g>
<defs>
<filter id="filter0_f_83_1557" x="0.395996" y="0.39624" width="353.208" height="353.208" filterUnits="userSpaceOnUse" color-interpolation-filters="sRGB">
<feFlood flood-opacity="0" result="BackgroundImageFix"/>
<feBlend mode="normal" in="SourceGraphic" in2="BackgroundImageFix" result="shape"/>
<feGaussianBlur stdDeviation="50" result="effect1_foregroundBlur_83_1557"/>
</filter>
<clipPath id="clip0_83_1557">
<rect width="174.219" height="148.83" fill="white" transform="translate(89.8906 103.023)"/>
</clipPath>
</defs>
</svg>
